<svg width="86" height="86" viewBox="0 0 86 86" fill="none" xmlns="http://www.w3.org/2000/svg">
<g clip-path="url(#clip0_72_617)">
<path d="M43 0C31.5957 0 20.6585 4.53034 12.5944 12.5944C4.53034 20.6585 0 31.5957 0 43C0 54.4043 4.53034 65.3415 12.5944 73.4056C20.6585 81.4697 31.5957 86 43 86C54.4043 86 65.3415 81.4697 73.4056 73.4056C81.4697 65.3415 86 54.4043 86 43C86 31.5957 81.4697 20.6585 73.4056 12.5944C65.3415 4.53034 54.4043 0 43 0ZM61.8125 40.3125C62.5253 40.3125 63.2088 40.5956 63.7129 41.0997C64.2169 41.6037 64.5 42.2872 64.5 43C64.5 43.7128 64.2169 44.3963 63.7129 44.9004C63.2088 45.4044 62.5253 45.6875 61.8125 45.6875H30.6751L42.2153 57.2222C42.4651 57.4721 42.6633 57.7688 42.7986 58.0952C42.9338 58.4217 43.0034 58.7716 43.0034 59.125C43.0034 59.4784 42.9338 59.8283 42.7986 60.1548C42.6633 60.4812 42.4651 60.7779 42.2153 61.0278C41.9654 61.2776 41.6687 61.4758 41.3423 61.6111C41.0158 61.7463 40.6659 61.8159 40.3125 61.8159C39.9591 61.8159 39.6092 61.7463 39.2827 61.6111C38.9563 61.4758 38.6596 61.2776 38.4097 61.0278L22.2847 44.9028C22.0345 44.6531 21.8359 44.3565 21.7004 44.03C21.5649 43.7035 21.4952 43.3535 21.4952 43C21.4952 42.6465 21.5649 42.2965 21.7004 41.97C21.8359 41.6435 22.0345 41.3469 22.2847 41.0972L38.4097 24.9722C38.9144 24.4676 39.5988 24.1841 40.3125 24.1841C41.0262 24.1841 41.7106 24.4676 42.2153 24.9722C42.7199 25.4769 43.0034 26.1613 43.0034 26.875C43.0034 27.5887 42.7199 28.2731 42.2153 28.7778L30.6751 40.3125H61.8125Z" fill="black"/>
</g>
<defs>
<clipPath id="clip0_72_617">
<rect width="86" height="86" fill="white"/>
</clipPath>
</defs>
</svg>
